<svg width="20" height="21" viewBox="0 0 20 21" fill="none" xmlns="http://www.w3.org/2000/svg">
<path d="M8.78922 15.8807C9.65482 15.8807 10.512 15.7102 11.3117 15.379C12.1114 15.0477 12.838 14.5622 13.4501 13.9501C14.0622 13.338 14.5477 12.6114 14.879 11.8117C15.2102 11.0119 15.3807 10.1548 15.3807 9.28921C15.3807 8.4236 15.2102 7.56647 14.879 6.76675C14.5477 5.96704 14.0622 5.2404 13.4501 4.62832C12.838 4.01624 12.1114 3.53072 11.3117 3.19946C10.512 2.86821 9.65482 2.69772 8.78922 2.69772C7.04104 2.69772 5.36447 3.39218 4.12832 4.62832C2.89218 5.86446 2.19772 7.54104 2.19772 9.28921C2.19772 11.0374 2.89218 12.714 4.12832 13.9501C5.36447 15.1862 7.04104 15.8807 8.78922 15.8807ZM15.7323 14.6789L19.6652 18.6118C19.77 18.7132 19.8536 18.8345 19.9111 18.9685C19.9686 19.1026 19.9988 19.2468 20 19.3927C20.0011 19.5385 19.9732 19.6832 19.9179 19.8181C19.8626 19.9531 19.7809 20.0757 19.6777 20.1788C19.5745 20.2819 19.4517 20.3633 19.3167 20.4185C19.1817 20.4736 19.037 20.5013 18.8911 20.5C18.7452 20.4986 18.6011 20.4682 18.4671 20.4105C18.3331 20.3528 18.212 20.2691 18.1107 20.1641L14.1778 16.2311C12.4117 17.602 10.1897 18.2483 7.96391 18.0385C5.73814 17.8287 3.67598 16.7786 2.19723 15.1019C0.718473 13.4252 -0.0657085 11.2479 0.00431635 9.01338C0.0743412 6.77884 0.993308 4.65497 2.57414 3.07414C4.15498 1.49331 6.27885 0.574341 8.51339 0.504316C10.7479 0.434292 12.9252 1.21847 14.6019 2.69722C16.2786 4.17597 17.3287 6.23813 17.5385 8.4639C17.7483 10.6897 17.102 12.9117 15.7312 14.6778L15.7323 14.6789Z" fill="white"/>
</svg>
