<svg width="400" height="400" viewBox="0 0 400 400" fill="none" xmlns="http://www.w3.org/2000/svg">
<path d="M399.949 24.6504C399.922 23.4613 399.877 22.2722 399.833 21.0787C399.784 19.747 399.744 18.4199 399.673 17.0838C399.535 14.4028 399.362 11.7084 399.135 9.00508C398.775 4.67177 395.34 1.23363 391.015 0.868442C388.317 0.641311 385.637 0.472076 382.966 0.329563C381.611 0.258306 380.268 0.218224 378.926 0.169235C377.762 0.129153 376.593 0.0801639 375.433 0.0578962C373.49 0.0133607 371.562 0 369.637 0C369.317 0 368.993 8.84756e-09 368.673 0.00445356C330.326 0.191503 295.125 9.62412 259.587 29.0683C258.96 29.4157 258.334 29.7408 257.707 30.0837C257.485 30.2084 257.267 30.3153 257.045 30.44C256.996 30.4667 256.956 30.5113 256.907 30.538C227.769 46.8113 198.68 69.7782 168.573 99.9466C165.15 103.376 161.804 106.85 158.493 110.341L99.9853 114.799C98.2741 114.928 96.6385 115.552 95.2741 116.589L3.50864 186.568C0.588609 188.795 -0.669182 192.589 0.348606 196.121C1.36195 199.653 4.43754 202.196 8.09091 202.53L94.1941 210.319L121.457 237.637C111.794 239.85 101.95 245.275 93.5185 253.719C88.4696 258.782 84.4162 264.456 81.4473 270.656C77.5672 278.89 69.0471 300.094 60.0248 322.544L55.6203 333.495C54.287 336.809 55.0559 340.599 57.5803 343.124C59.2781 344.829 61.5537 345.733 63.8693 345.733C64.9849 345.733 66.1138 345.52 67.1938 345.083L78.5139 340.509C100.736 331.54 121.728 323.065 129.963 319.177C136.097 316.22 141.763 312.158 146.808 307.103C155.235 298.659 160.644 288.795 162.853 279.113L189.306 305.62L197.08 391.895C197.409 395.555 199.951 398.637 203.475 399.653C204.289 399.889 205.115 400 205.933 400C208.662 400 211.298 398.74 213.009 396.486L282.836 304.538C283.872 303.171 284.494 301.532 284.623 299.817L288.938 242.923C292.747 239.311 296.521 235.642 300.259 231.901C330.388 201.71 353.321 172.548 369.566 143.333C369.584 143.302 369.61 143.275 369.628 143.244C369.708 143.101 369.775 142.963 369.855 142.821C370.597 141.48 371.304 140.14 372.015 138.795C390.713 103.848 399.797 69.1636 399.993 31.4688C399.997 31.0991 399.997 30.7339 399.997 30.3643C400.006 28.4715 399.993 26.5654 399.949 24.6504ZM286.303 166.554C279.294 173.577 269.969 177.452 260.049 177.452C250.134 177.452 240.809 173.582 233.796 166.554C219.32 152.044 219.32 128.445 233.796 113.935C248.28 99.4299 271.836 99.4389 286.303 113.935C293.316 120.958 297.183 130.302 297.183 140.242C297.183 150.183 293.321 159.526 286.303 166.554Z" fill="#5BC0BE"/>
</svg>
