<svg width="24" height="24" viewBox="0 0 24 24" fill="none" xmlns="http://www.w3.org/2000/svg">
<path d="M15.4499 16.52L12.4399 13.51C12.3299 13.4 12.1999 13.38 12.1299 13.38C12.0599 13.38 11.9299 13.4 11.8199 13.51L8.79991 16.53C8.45991 16.87 7.92991 17.42 6.15991 17.42L9.86991 21.12C10.4324 21.6818 11.1949 21.9974 11.9899 21.9974C12.7849 21.9974 13.5474 21.6818 14.1099 21.12L17.8299 17.41C16.9199 17.41 16.1599 17.23 15.4499 16.52ZM8.79991 7.47005L11.8199 10.49C11.8999 10.57 12.0199 10.62 12.1299 10.62C12.2399 10.62 12.3599 10.57 12.4399 10.49L15.4299 7.50005C16.1399 6.76005 16.9499 6.59005 17.8599 6.59005L14.1399 2.88005C13.5774 2.31824 12.8149 2.00269 12.0199 2.00269C11.2249 2.00269 10.4624 2.31824 9.89991 2.88005L6.18991 6.58005C7.94991 6.58005 8.48991 7.16005 8.79991 7.47005Z" fill="#FAFAFA"/>
<path d="M21.11 9.84995L18.86 7.58995H17.6C17.06 7.58995 16.52 7.80995 16.15 8.19995L13.15 11.1999C12.87 11.4799 12.5 11.6199 12.13 11.6199C11.749 11.6146 11.3844 11.4644 11.11 11.1999L8.09005 8.16995C7.71005 7.78995 7.19005 7.56995 6.64005 7.56995H5.17005L2.88005 9.86995C2.31824 10.4324 2.00269 11.1949 2.00269 11.9899C2.00269 12.7849 2.31824 13.5474 2.88005 14.1099L5.17005 16.4099H6.65005C7.19005 16.4099 7.71005 16.1899 8.10005 15.8099L11.12 12.7899C11.4 12.5099 11.77 12.3699 12.14 12.3699C12.51 12.3699 12.88 12.5099 13.16 12.7899L16.17 15.7999C16.55 16.1799 17.07 16.3999 17.62 16.3999H18.88L21.13 14.1399C21.6942 13.5673 22.0088 12.7947 22.005 11.9908C22.0013 11.187 21.6795 10.4173 21.11 9.84995Z" fill="#FAFAFA"/>
</svg>
